inDegrees=no
num_controls=7
num_derivatives=13
num_iterations=400
num_multipliers=7
num_parameters=0
num_slacks=7
num_states=26
objective=0.449375
objective_accelerations=0.047973
objective_balance=0.007477
objective_effort=0.035906
objective_height=0.353060
objective_ligament=0.004959
solver_duration=5633.752476
status=Solve_Succeeded
success=true
DataType=double
version=3
OpenSimVersion=4.5
endheader
time	/jointset/ground_pelvis/pelvis_tilt/value	/jointset/ground_pelvis/pelvis_tx/value	/jointset/ground_pelvis/pelvis_ty/value	/jointset/hip_l/hip_flexion_l/value	/jointset/hip_l/hip_adduction_l/value	/jointset/hip_l/hip_rotation_l/value	/jointset/back/lumbar_extension/value	/jointset/patellofemoral_l/patellar_flexion_l/value	/jointset/knee_l/knee_flexion_l/value	/jointset/knee_l/knee_adduction_l/value	/jointset/knee_l/knee_rotation_l/value	/jointset/ankle_l/ankle_angle_l/value	/jointset/subtalar_l/subtalar_angle_l/value	/jointset/ground_pelvis/pelvis_tilt/speed	/jointset/ground_pelvis/pelvis_tx/speed	/jointset/ground_pelvis/pelvis_ty/speed	/jointset/hip_l/hip_flexion_l/speed	/jointset/hip_l/hip_adduction_l/speed	/jointset/hip_l/hip_rotation_l/speed	/jointset/back/lumbar_extension/speed	/jointset/patellofemoral_l/patellar_flexion_l/speed	/jointset/knee_l/knee_flexion_l/speed	/jointset/knee_l/knee_adduction_l/speed	/jointset/knee_l/knee_rotation_l/speed	/jointset/ankle_l/ankle_angle_l/speed	/jointset/subtalar_l/subtalar_angle_l/speed	/forceset/tau_hip_flexion_l	/forceset/tau_hip_adduction_l	/forceset/tau_hip_rotation_l	/forceset/tau_knee_flexion_l	/forceset/tau_ankle_angle_l	/forceset/tau_subtalar_angle_l	/forceset/tau_lumbar_extension	lambda_cid13_p0	lambda_cid13_p1	lambda_cid13_p2	lambda_cid13_p3	lambda_cid13_p4	lambda_cid13_p5	lambda_cid14_p0	/jointset/ground_pelvis/pelvis_tilt/accel	/jointset/ground_pelvis/pelvis_tx/accel	/jointset/ground_pelvis/pelvis_ty/accel	/jointset/hip_l/hip_flexion_l/accel	/jointset/hip_l/hip_adduction_l/accel	/jointset/hip_l/hip_rotation_l/accel	/jointset/back/lumbar_extension/accel	/jointset/patellofemoral_l/patellar_flexion_l/accel	/jointset/knee_l/knee_flexion_l/accel	/jointset/knee_l/knee_adduction_l/accel	/jointset/knee_l/knee_rotation_l/accel	/jointset/ankle_l/ankle_angle_l/accel	/jointset/subtalar_l/subtalar_angle_l/accel	gamma_cid13_p0	gamma_cid13_p1	gamma_cid13_p2	gamma_cid13_p3	gamma_cid13_p4	gamma_cid13_p5	gamma_cid14_p0
1.5	-0.4401882366246574	-0.07300524102499761	0.7659092605984504	1.250086041672926	-0.3097658177964839	-0.0496306978763047	-0.3435462725828305	0.6791598519272941	0.6791598519272716	-0.1734576179277744	0.1744412670340149	0.03467581259977295	-0.04944938841573421	0.7128702171176794	0.2598056334551496	0.4757326668285706	-2.289022416208135	0.0350117849337061	-0.5985941007504346	0.5664151927306139	-1.719371643360226	-1.719371643360218	0.005424719225618023	-0.001897068710253863	-0.2344854419756633	0.008994433292442656	-0.2455167244451415	0.004187000501253732	-0.02144327611662335	-0.2034517581360882	0.1414497267756918	0.0556564685692713	0.2225412377978442	6.750467418124069	-28.12953960286314	7.253032846787013	-5.979289209761533	-611.1597786638623	-71.38781866464788	-28.86859783852561	0.6011823036802317	0.6710808956116003	-0.2819987383617299	-1.506444806926847	0.5702093335165263	-0.2762165642103711	1.710941636960506	-1.073479163723281	-1.073479163723286	0.02650860828256143	-0.04119533101519639	-0.1061827028815419	0.5531965923651964	2.26170162406818e-07	7.738667958571642e-07	-1.136541143899654e-06	-3.810856218113442e-08	3.078452759735316e-07	-6.426187007567337e-09	2.689186592543126e-07
1.51	-0.4330298314126855	-0.07037383449811745	0.770651578314824	1.227122664996156	-0.3093881324283355	-0.05563034477205142	-0.3377979288068494	0.661914727570921	0.6619147275709096	-0.1734037027607027	0.1744216659407537	0.0323258280246222	-0.04933279941615545	0.7187134961423641	0.2664470263498207	0.4726367595860919	-2.303340428741522	0.0405300520811362	-0.6012345606975202	0.5831801874353817	-1.729414360542359	-1.729414360542361	0.005336603593998228	-0.002038837212433157	-0.2354631885617784	0.01432926822190196	-0.2376927181902812	0.003986846334950432	-0.02132202307671734	-0.2021026180625395	0.141594922798247	0.05449778368519203	0.2164574201750616	7.014001575519422	-27.76686470999961	7.303038894642571	-5.965398520719146	-606.869619334536	-71.21636984147945	-29.84296112005789	0.5613169393520727	0.6563953854927452	-0.3374602917781594	-1.347586736369335	0.5432585505123899	-0.2426563224677608	1.648272132697812	-0.9338760674897325	-0.9338760674912384	-0.02954956479641344	-0.002888909913127221	-0.08631517715540918	0.524381068055275	1.226340173085864e-07	1.004610807413912e-06	-6.452812363800118e-07	6.536777952237565e-08	2.497169877456914e-07	5.884140831342633e-08	2.174192452005728e-07
1.52	-0.4258159101629689	-0.067676868662471	0.7753601222438554	1.204025486742087	-0.3089551397596815	-0.06165333538977074	-0.3318841363347281	0.6445763344283197	0.6445763344283202	-0.1733512843331291	0.1744002029024529	0.02996751707547458	-0.04916271124231832	0.723973424666628	0.2729174952084065	0.4689779093601229	-2.315782731667895	0.04607324503481156	-0.6032628451450098	0.5995049319586664	-1.738025400605751	-1.738025400605763	0.005125371325892063	-0.00226945771836586	-0.2361507167750504	0.01969426814412046	-0.2298687119354198	0.003786692168648288	-0.02120077003680558	-0.2007534779889913	0.1417401188208025	0.053339098801114	0.21037360255228	7.269826064298021	-27.40580619198759	7.356690947450881	-5.939179110053968	-602.7035710665285	-71.10078705065358	-30.79846164449803	0.4845122035960286	0.6368960883945256	-0.3945873350597846	-1.131302885523838	0.5751944947655815	-0.1537814642911243	1.622891600663909	-0.7871437399752806	-0.7871437399752818	0.001885280985287781	-0.05896573176587817	-0.04813902831294242	0.5592295909170375	6.583590771432884e-08	1.151906446831244e-06	-3.86555684740958e-07	1.234036069123877e-07	2.232593592228333e-07	1.031982815660951e-07	1.919451146992544e-07
1.53	-0.4185523118348123	-0.06491612145609492	0.7800293041724842	1.180813309207967	-0.3084666360597437	-0.06769391214438258	-0.325809473018795	0.6271591064476032	0.6271591064476112	-0.173301411002564	0.1743762737346649	0.02760380371570431	-0.04893885843349512	0.7286433674098539	0.2791955291111904	0.4647679228820498	-2.32632549297569	0.05163035788269937	-0.6047697980262272	0.615340652968645	-1.745167730882883	-1.745167730882894	0.004845995946994659	-0.002517534231416565	-0.2365406121997156	0.02508104548971211	-0.2219708353692277	0.003552289696231878	-0.02111071419651529	-0.1993908470701103	0.1419012054992656	0.05194792467581147	0.2041845102228678	7.523707458461769	-26.94557101183207	7.396968552885281	-5.874973161535587	-598.5359382176771	-70.8116785047401	-31.7309436818084	0.4428181918107348	0.6178221741628469	-0.447740466257849	-0.966652863404347	0.5462867967865463	-0.1365425505764806	1.550850612263359	-0.6399470311145796	-0.6399470311144091	-0.0431458662143281	-0.007769411118133535	-0.02670042931257403	0.5289623241874868	5.869696084304337e-08	1.210538190850448e-06	-3.748978862250266e-07	1.331588878443085e-07	2.304518066365183e-07	1.253375126211687e-07	1.941228479723835e-07
1.54	-0.4112450975027986	-0.06209368088410252	0.7846536790039169	1.157505526038771	-0.3079224978079298	-0.07374703649791427	-0.3195790648405423	0.6096780212922087	0.6096780212922244	-0.1732543908095651	0.1743498556417382	0.02523773427573358	-0.04866102574765455	0.7326966254380751	0.2852561683316744	0.4600164899209041	-2.334903858683364	0.05720015541003359	-0.6057723649290216	0.6306539044225646	-1.750796835541312	-1.750796835541322	0.00455474381261448	-0.002767242746206047	-0.2366219328151514	0.03049024354759412	-0.2140729588030346	0.003317887223816336	-0.02102065835622254	-0.1980282161512295	0.142062292177729	0.05055675055050988	0.1979954178934563	7.769133269636197	-26.4868616722994	7.440923495628103	-5.793494276961586	-594.4996781032471	-70.57957844824973	-32.63628859652093	0.3611752605951195	0.5934171519345165	-0.5028766316742914	-0.7384237654995649	0.5777314306548621	-0.05290426860652101	1.518397689452082	-0.4844986162347002	-0.4844986162347014	-0.0004900701112667072	-0.05929213211363369	0.01357593353293221	0.5637137333751072	5.023323506105867e-08	1.269627788154529e-06	-3.607849058211245e-07	1.430332268789567e-07	2.368097799333573e-07	1.476957803242426e-07	1.956040004526822e-07
1.55	-0.4039004542296156	-0.05921178364481198	0.789227886933237	1.134121800307371	-0.3073226899246547	-0.07980780642795095	-0.3131983146557156	0.5921482588547026	0.5921482588547072	-0.1732103901428424	0.1743210653738991	0.02287239123784534	-0.04832907537392731	0.7361232654615146	0.2910798334860225	0.4547394720577387	-2.341503228015467	0.06275618316703936	-0.6062934861369493	0.6453940317912915	-1.754896784630373	-1.754896784630359	0.004236259559090384	-0.002993895858969452	-0.2363950594746689	0.03589675276059658	-0.2060885628119295	0.003048954031078887	-0.02097674151358837	-0.1967531943826411	0.1424107276558211	0.04887979639981604	0.191703788925409	8.06278625499108	-25.9154832503025	7.470343610601237	-5.717579252802496	-590.5197734255562	-70.15021839758278	-33.51028546213409	0.3171049164379114	0.5703560124649629	-0.5529089055723637	-0.5699698472006589	0.5436174774346774	-0.03828788285961063	1.436505147854337	-0.3339522877134806	-0.3339522877098419	-0.0486789224695612	-0.004682206034731308	0.03499784591043797	0.528482874329077	4.024313357761626e-08	1.329244912069447e-06	-3.438431288941258e-07	1.530447415537039e-07	2.422062939216565e-07	1.703064163391426e-07	1.962825707151548e-07
